<svg width="24" height="25" viewBox="0 0 24 25" fill="none" xmlns="http://www.w3.org/2000/svg">
<path d="M22 12.9135V12.9137V22.1895C22 22.2798 21.9639 22.3714 21.8916 22.4428C21.8184 22.5151 21.714 22.5601 21.6 22.5601H2.4C2.286 22.5601 2.18156 22.5151 2.10839 22.4428C2.03606 22.3714 2 22.2798 2 22.1895V12.9137V12.9135C1.99996 12.5439 2.07626 12.1777 2.22496 11.8368C2.37369 11.4959 2.59208 11.1867 2.86811 10.9292L2.86834 10.9289L11.7159 2.67004L11.7162 2.66978C11.789 2.60177 11.8903 2.56006 12 2.56006C12.1097 2.56006 12.211 2.60177 12.2838 2.66978L12.2841 2.67004L21.1317 10.9289L21.1319 10.9292C21.4079 11.1867 21.6263 11.4959 21.775 11.8368C21.9237 12.1777 22 12.5439 22 12.9135Z" stroke="#9F9F9F" stroke-width="4" stroke-linecap="round" stroke-linejoin="round"/>
</svg>
