<svg width="24" height="25" viewBox="0 0 24 25" fill="none" xmlns="http://www.w3.org/2000/svg">
<path d="M22 12.9134V12.9136V22.1895C22 22.2797 21.9639 22.3713 21.8916 22.4428C21.8184 22.515 21.714 22.56 21.6 22.56H2.4C2.286 22.56 2.18156 22.515 2.10839 22.4428C2.03606 22.3713 2 22.2797 2 22.1895V12.9136V12.9134C1.99996 12.5439 2.07626 12.1776 2.22496 11.8367C2.37369 11.4958 2.59208 11.1867 2.86811 10.9291L2.86834 10.9289L11.7159 2.66998L11.7162 2.66972C11.789 2.60171 11.8903 2.56 12 2.56C12.1097 2.56 12.211 2.60171 12.2838 2.66972L12.2841 2.66998L21.1317 10.9289L21.1319 10.9291C21.4079 11.1867 21.6263 11.4958 21.775 11.8367C21.9237 12.1776 22 12.5439 22 12.9134Z" stroke="url(#paint0_linear_1_1338)" stroke-width="4" stroke-linecap="round" stroke-linejoin="round"/>
<defs>
<linearGradient id="paint0_linear_1_1338" x1="12" y1="36.56" x2="36" y2="12.56" gradientUnits="userSpaceOnUse">
<stop stop-color="#28C4FF"/>
<stop offset="1" stop-color="#0097D1"/>
</linearGradient>
</defs>
</svg>
