<svg width="25" height="25" viewBox="0 0 25 25" fill="none" xmlns="http://www.w3.org/2000/svg">
<rect x="2.86963" y="4.56006" width="20" height="18" rx="2.88889" stroke="url(#paint0_linear_1_278)" stroke-width="4"/>
<rect x="5.86963" y="0.560059" width="4" height="6" rx="2" fill="url(#paint1_linear_1_278)"/>
<rect x="15.8696" y="0.560059" width="4" height="6" rx="2" fill="url(#paint2_linear_1_278)"/>
<rect x="6.86963" y="10.5601" width="2" height="2" rx="1" fill="url(#paint3_linear_1_278)"/>
<rect x="11.8696" y="10.5601" width="2" height="2" rx="1" fill="url(#paint4_linear_1_278)"/>
<rect x="16.8696" y="10.5601" width="2" height="2" rx="1" fill="url(#paint5_linear_1_278)"/>
<rect x="6.86963" y="14.5601" width="2" height="2" rx="1" fill="url(#paint6_linear_1_278)"/>
<rect x="11.8696" y="14.5601" width="2" height="2" rx="1" fill="url(#paint7_linear_1_278)"/>
<rect x="16.8696" y="14.5601" width="2" height="2" rx="1" fill="url(#paint8_linear_1_278)"/>
<defs>
<linearGradient id="paint0_linear_1_278" x1="12.8696" y1="35.5601" x2="34.7866" y2="11.6506" gradientUnits="userSpaceOnUse">
<stop stop-color="#28C4FF"/>
<stop offset="1" stop-color="#0097D1"/>
</linearGradient>
<linearGradient id="paint1_linear_1_278" x1="7.86963" y1="9.56006" x2="13.4081" y2="5.86775" gradientUnits="userSpaceOnUse">
<stop stop-color="#28C4FF"/>
<stop offset="1" stop-color="#0097D1"/>
</linearGradient>
<linearGradient id="paint2_linear_1_278" x1="17.8696" y1="9.56006" x2="23.4081" y2="5.86775" gradientUnits="userSpaceOnUse">
<stop stop-color="#28C4FF"/>
<stop offset="1" stop-color="#0097D1"/>
</linearGradient>
<linearGradient id="paint3_linear_1_278" x1="7.86963" y1="13.5601" x2="9.86963" y2="11.5601" gradientUnits="userSpaceOnUse">
<stop stop-color="#28C4FF"/>
<stop offset="1" stop-color="#0097D1"/>
</linearGradient>
<linearGradient id="paint4_linear_1_278" x1="12.8696" y1="13.5601" x2="14.8696" y2="11.5601" gradientUnits="userSpaceOnUse">
<stop stop-color="#28C4FF"/>
<stop offset="1" stop-color="#0097D1"/>
</linearGradient>
<linearGradient id="paint5_linear_1_278" x1="17.8696" y1="13.5601" x2="19.8696" y2="11.5601" gradientUnits="userSpaceOnUse">
<stop stop-color="#28C4FF"/>
<stop offset="1" stop-color="#0097D1"/>
</linearGradient>
<linearGradient id="paint6_linear_1_278" x1="7.86963" y1="17.5601" x2="9.86963" y2="15.5601" gradientUnits="userSpaceOnUse">
<stop stop-color="#28C4FF"/>
<stop offset="1" stop-color="#0097D1"/>
</linearGradient>
<linearGradient id="paint7_linear_1_278" x1="12.8696" y1="17.5601" x2="14.8696" y2="15.5601" gradientUnits="userSpaceOnUse">
<stop stop-color="#28C4FF"/>
<stop offset="1" stop-color="#0097D1"/>
</linearGradient>
<linearGradient id="paint8_linear_1_278" x1="17.8696" y1="17.5601" x2="19.8696" y2="15.5601" gradientUnits="userSpaceOnUse">
<stop stop-color="#28C4FF"/>
<stop offset="1" stop-color="#0097D1"/>
</linearGradient>
</defs>
</svg>
