<svg width="25" height="25" viewBox="0 0 25 25" fill="none" xmlns="http://www.w3.org/2000/svg">
<circle cx="12.739" cy="12.5601" r="10" stroke="url(#paint0_linear_1_453)" stroke-width="4"/>
<path d="M13.6794 16.104C13.9073 16.104 14.1283 16.0858 14.3425 16.0493C14.5613 16.0129 14.7686 15.9582 14.9646 15.8853L15.2107 17.4849C14.9418 17.5487 14.6593 17.5988 14.363 17.6353C14.0668 17.6717 13.766 17.6899 13.4607 17.6899C12.8865 17.6899 12.3578 17.6102 11.8748 17.4507C11.3917 17.2912 10.9724 17.0519 10.6169 16.7329C10.266 16.4093 9.99259 16.0106 9.79663 15.5366C9.60067 15.0581 9.50269 14.4998 9.50269 13.8618V11.5034C9.50269 10.8381 9.60067 10.2547 9.79663 9.75342C9.99715 9.25212 10.2797 8.83285 10.6443 8.49561C11.0089 8.15837 11.4418 7.90544 11.9431 7.73682C12.4444 7.56364 13.0004 7.47705 13.6111 7.47705C13.88 7.47705 14.1466 7.49756 14.4109 7.53857C14.6798 7.57503 14.9464 7.62516 15.2107 7.68896L14.9646 9.29541C14.7869 9.22705 14.5863 9.17236 14.363 9.13135C14.1443 9.09033 13.9278 9.06982 13.7136 9.06982C13.3764 9.06982 13.0733 9.11768 12.8044 9.21338C12.5356 9.30452 12.3077 9.44808 12.1208 9.64404C11.9386 9.83545 11.7996 10.0838 11.7039 10.3892C11.6082 10.6945 11.5603 11.0614 11.5603 11.4897V13.8618C11.5603 14.2811 11.6104 14.6366 11.7107 14.9282C11.811 15.2153 11.9545 15.4455 12.1414 15.6187C12.3282 15.7873 12.5515 15.9103 12.8113 15.9878C13.071 16.0653 13.3604 16.104 13.6794 16.104ZM13.8435 11.1206V12.1323H8.34741V11.1206H13.8435ZM13.8435 13.0005V14.0122H8.34741V13.0005H13.8435Z" fill="url(#paint1_linear_1_453)"/>
<defs>
<linearGradient id="paint0_linear_1_453" x1="12.739" y1="36.5601" x2="36.739" y2="12.5601" gradientUnits="userSpaceOnUse">
<stop stop-color="#28C4FF"/>
<stop offset="1" stop-color="#0097D1"/>
</linearGradient>
<linearGradient id="paint1_linear_1_453" x1="12.239" y1="28.5601" x2="25.9126" y2="20.8687" gradientUnits="userSpaceOnUse">
<stop stop-color="#28C4FF"/>
<stop offset="1" stop-color="#0097D1"/>
</linearGradient>
</defs>
</svg>
