<svg width="25" height="25" viewBox="0 0 25 25" fill="none" xmlns="http://www.w3.org/2000/svg">
<circle cx="12.7391" cy="12.5601" r="10" stroke="#9F9F9F" stroke-width="4"/>
<path d="M13.8504 14.0327H11.5604C11.5832 14.7026 11.7609 15.2062 12.0936 15.5435C12.4308 15.8807 12.9526 16.0493 13.659 16.0493C14.1375 16.0493 14.5705 15.9787 14.9578 15.8374L15.2039 17.4917C14.6388 17.6239 14.0555 17.6899 13.4539 17.6899C12.2554 17.6899 11.3052 17.3687 10.6033 16.7261C9.90607 16.0789 9.5392 15.1812 9.50275 14.0327H8.34747V12.9937H9.50275V12.146H8.34747V11.1069H9.51642C9.59389 9.9585 9.99266 9.06755 10.7127 8.43408C11.4373 7.79606 12.3966 7.47705 13.5906 7.47705C14.0692 7.47705 14.6069 7.54769 15.2039 7.68896L14.9578 9.3501C14.5294 9.20426 14.1079 9.13135 13.6932 9.13135C12.4035 9.13135 11.6971 9.78988 11.574 11.1069H13.8504V12.146H11.5604V12.9937H13.8504V14.0327Z" fill="#9F9F9F"/>
</svg>
