<svg width="25" height="25" viewBox="0 0 25 25" fill="none" xmlns="http://www.w3.org/2000/svg">
<circle cx="12.6086" cy="12.5601" r="10" stroke="url(#paint0_linear_1_390)" stroke-width="4"/>
<path d="M13.4524 10.1636V17.5601H11.4768V10.1636H13.4524ZM11.3538 8.23584C11.3538 7.94873 11.454 7.71175 11.6545 7.5249C11.8551 7.33805 12.1239 7.24463 12.4612 7.24463C12.7939 7.24463 13.0605 7.33805 13.261 7.5249C13.4661 7.71175 13.5686 7.94873 13.5686 8.23584C13.5686 8.52295 13.4661 8.75993 13.261 8.94678C13.0605 9.13363 12.7939 9.22705 12.4612 9.22705C12.1239 9.22705 11.8551 9.13363 11.6545 8.94678C11.454 8.75993 11.3538 8.52295 11.3538 8.23584Z" fill="url(#paint1_linear_1_390)"/>
<defs>
<linearGradient id="paint0_linear_1_390" x1="12.6086" y1="36.5601" x2="36.6086" y2="12.5601" gradientUnits="userSpaceOnUse">
<stop stop-color="#28C4FF"/>
<stop offset="1" stop-color="#0097D1"/>
</linearGradient>
<linearGradient id="paint1_linear_1_390" x1="12.6086" y1="28.5601" x2="20.1381" y2="26.6777" gradientUnits="userSpaceOnUse">
<stop stop-color="#28C4FF"/>
<stop offset="1" stop-color="#0097D1"/>
</linearGradient>
</defs>
</svg>
