<svg width="25" height="25" viewBox="0 0 25 25" fill="none" xmlns="http://www.w3.org/2000/svg">
<circle cx="12.6086" cy="12.5601" r="10" stroke="#9F9F9F" stroke-width="4"/>
<path d="M13.4523 17.5601H11.4699V10.1636H13.4523V17.5601ZM11.3537 8.24951C11.3537 7.95329 11.4517 7.70947 11.6476 7.51807C11.8482 7.32666 12.1193 7.23096 12.4611 7.23096C12.7984 7.23096 13.0672 7.32666 13.2678 7.51807C13.4683 7.70947 13.5685 7.95329 13.5685 8.24951C13.5685 8.55029 13.466 8.79639 13.2609 8.98779C13.0604 9.1792 12.7938 9.2749 12.4611 9.2749C12.1284 9.2749 11.8596 9.1792 11.6545 8.98779C11.454 8.79639 11.3537 8.55029 11.3537 8.24951Z" fill="#9F9F9F"/>
</svg>
