<svg width="25" height="25" viewBox="0 0 25 25" fill="none" xmlns="http://www.w3.org/2000/svg">
<path fill-rule="evenodd" clip-rule="evenodd" d="M14.7255 0.742459C14.2582 0.560059 13.6645 0.560059 12.4784 0.560059C11.2923 0.560059 10.6999 0.560059 10.2312 0.742459C9.92288 0.862153 9.64249 1.0386 9.4062 1.26163C9.16991 1.48467 8.98238 1.7499 8.8544 2.04206C8.73566 2.30966 8.69019 2.62286 8.67124 3.07766C8.66223 3.40706 8.56522 3.72888 8.38934 4.01288C8.21346 4.29689 7.96447 4.53377 7.66577 4.70126C7.36103 4.86218 7.01846 4.94743 6.66981 4.94911C6.32115 4.95079 5.97769 4.86884 5.67125 4.71086C5.24431 4.49726 4.93483 4.37966 4.62915 4.34126C3.96041 4.25837 3.28423 4.42909 2.74705 4.81646C2.34537 5.10686 2.04853 5.59166 1.45611 6.56006C0.862425 7.52846 0.566847 8.01206 0.4999 8.48606C0.411479 9.11726 0.593373 9.75566 1.00516 10.2609C1.19211 10.4913 1.45611 10.6845 1.86411 10.9269C2.46663 11.2833 2.85315 11.8905 2.85315 12.5601C2.85315 13.2297 2.46663 13.8369 1.86537 14.1921C1.45611 14.4357 1.19211 14.6289 1.0039 14.8593C0.801246 15.1091 0.652424 15.3945 0.565944 15.699C0.479464 16.0035 0.457021 16.3213 0.4999 16.6341C0.566847 17.1069 0.862425 17.5917 1.45611 18.5601C2.04979 19.5285 2.34537 20.0121 2.74705 20.3037C3.28263 20.6913 3.95968 20.8617 4.62915 20.7789C4.93483 20.7405 5.24431 20.6229 5.67125 20.4093C5.97785 20.2511 6.32154 20.169 6.67044 20.1707C7.01934 20.1724 7.36214 20.2577 7.66703 20.4189C8.28093 20.7549 8.64471 21.3729 8.67124 22.0425C8.69019 22.4985 8.73566 22.8105 8.8544 23.0781C9.11208 23.6661 9.60724 24.1341 10.2312 24.3777C10.6986 24.5601 11.2923 24.5601 12.4784 24.5601C13.6645 24.5601 14.2582 24.5601 14.7255 24.3777C15.0339 24.258 15.3143 24.0815 15.5506 23.8585C15.7869 23.6354 15.9744 23.3702 16.1024 23.0781C16.2211 22.8105 16.2666 22.4985 16.2855 22.0425C16.3108 21.3729 16.6758 20.7537 17.291 20.4189C17.5957 20.2579 17.9383 20.1727 18.287 20.171C18.6356 20.1693 18.9791 20.2513 19.2855 20.4093C19.7125 20.6229 20.0219 20.7405 20.3276 20.7789C20.9971 20.8629 21.6741 20.6913 22.2097 20.3037C22.6114 20.0133 22.9082 19.5285 23.5007 18.5601C24.0943 17.5917 24.3899 17.1081 24.4569 16.6341C24.4996 16.3212 24.4769 16.0034 24.3902 15.6989C24.3035 15.3943 24.1545 15.109 23.9516 14.8593C23.7647 14.6289 23.5007 14.4357 23.0927 14.1933C22.4901 13.8369 22.1036 13.2297 22.1036 12.5601C22.1036 11.8905 22.4901 11.2833 23.0914 10.9281C23.5007 10.6845 23.7647 10.4913 23.9529 10.2609C24.1555 10.011 24.3043 9.72565 24.3908 9.42112C24.4773 9.11658 24.4997 8.79884 24.4569 8.48606C24.3899 8.01326 24.0943 7.52846 23.5007 6.56006C22.907 5.59166 22.6114 5.10806 22.2097 4.81646C21.6725 4.42909 20.9964 4.25837 20.3276 4.34126C20.0219 4.37966 19.7125 4.49726 19.2855 4.71086C18.9789 4.86905 18.6352 4.95112 18.2863 4.94944C17.9374 4.94776 17.5946 4.8624 17.2897 4.70126C16.9913 4.53362 16.7425 4.29668 16.5669 4.01268C16.3912 3.72869 16.2944 3.40694 16.2855 3.07766C16.2666 2.62166 16.2211 2.30966 16.1024 2.04206C15.9744 1.7499 15.7869 1.48467 15.5506 1.26163C15.3143 1.0386 15.0339 0.862153 14.7255 0.742459ZM12.4784 16.1601C14.5879 16.1601 16.2969 14.5485 16.2969 12.5601C16.2969 10.5717 14.5866 8.96006 12.4784 8.96006C10.3702 8.96006 8.65987 10.5717 8.65987 12.5601C8.65987 14.5485 10.3702 16.1601 12.4784 16.1601Z" fill="#9F9F9F"/>
</svg>
