<svg width="25" height="25" viewBox="0 0 25 25" fill="none" xmlns="http://www.w3.org/2000/svg">
<path fill-rule="evenodd" clip-rule="evenodd" d="M14.7256 0.742459C14.2582 0.560059 13.6645 0.560059 12.4784 0.560059C11.2923 0.560059 10.6999 0.560059 10.2313 0.742459C9.92295 0.862153 9.64256 1.0386 9.40626 1.26163C9.16997 1.48467 8.98244 1.7499 8.85446 2.04206C8.73572 2.30966 8.69025 2.62286 8.6713 3.07766C8.66229 3.40706 8.56528 3.72888 8.3894 4.01288C8.21352 4.29689 7.96453 4.53377 7.66583 4.70126C7.36109 4.86218 7.01852 4.94743 6.66987 4.94911C6.32121 4.95079 5.97776 4.86884 5.67131 4.71086C5.24437 4.49726 4.93489 4.37966 4.62921 4.34126C3.96047 4.25837 3.28429 4.42909 2.74711 4.81646C2.34543 5.10686 2.04859 5.59166 1.45617 6.56006C0.862486 7.52846 0.566908 8.01206 0.499961 8.48606C0.41154 9.11726 0.593434 9.75566 1.00522 10.2609C1.19217 10.4913 1.45617 10.6845 1.86417 10.9269C2.46669 11.2833 2.85322 11.8905 2.85322 12.5601C2.85322 13.2297 2.46669 13.8369 1.86543 14.1921C1.45617 14.4357 1.19217 14.6289 1.00396 14.8593C0.801307 15.1091 0.652486 15.3945 0.566005 15.699C0.479525 16.0035 0.457082 16.3213 0.499961 16.6341C0.566908 17.1069 0.862486 17.5917 1.45617 18.5601C2.04985 19.5285 2.34543 20.0121 2.74711 20.3037C3.28269 20.6913 3.95974 20.8617 4.62921 20.7789C4.93489 20.7405 5.24437 20.6229 5.67131 20.4093C5.97791 20.2511 6.3216 20.169 6.6705 20.1707C7.0194 20.1724 7.3622 20.2577 7.66709 20.4189C8.28099 20.7549 8.64478 21.3729 8.6713 22.0425C8.69025 22.4985 8.73572 22.8105 8.85446 23.0781C9.11214 23.6661 9.6073 24.1341 10.2313 24.3777C10.6987 24.5601 11.2923 24.5601 12.4784 24.5601C13.6645 24.5601 14.2582 24.5601 14.7256 24.3777C15.0339 24.258 15.3143 24.0815 15.5506 23.8585C15.7869 23.6354 15.9745 23.3702 16.1024 23.0781C16.2212 22.8105 16.2666 22.4985 16.2856 22.0425C16.3109 21.3729 16.6759 20.7537 17.2911 20.4189C17.5958 20.2579 17.9384 20.1727 18.287 20.171C18.6357 20.1693 18.9791 20.2513 19.2856 20.4093C19.7125 20.6229 20.022 20.7405 20.3277 20.7789C20.9972 20.8629 21.6742 20.6913 22.2098 20.3037C22.6115 20.0133 22.9083 19.5285 23.5007 18.5601C24.0944 17.5917 24.39 17.1081 24.4569 16.6341C24.4996 16.3212 24.477 16.0034 24.3903 15.6989C24.3036 15.3943 24.1545 15.109 23.9517 14.8593C23.7647 14.6289 23.5007 14.4357 23.0927 14.1933C22.4902 13.8369 22.1037 13.2297 22.1037 12.5601C22.1037 11.8905 22.4902 11.2833 23.0915 10.9281C23.5007 10.6845 23.7647 10.4913 23.9529 10.2609C24.1556 10.011 24.3044 9.72565 24.3909 9.42112C24.4774 9.11658 24.4998 8.79884 24.4569 8.48606C24.39 8.01326 24.0944 7.52846 23.5007 6.56006C22.907 5.59166 22.6115 5.10806 22.2098 4.81646C21.6726 4.42909 20.9964 4.25837 20.3277 4.34126C20.022 4.37966 19.7125 4.49726 19.2856 4.71086C18.979 4.86905 18.6353 4.95112 18.2864 4.94944C17.9375 4.94776 17.5947 4.8624 17.2898 4.70126C16.9913 4.53362 16.7426 4.29668 16.5669 4.01268C16.3913 3.72869 16.2945 3.40694 16.2856 3.07766C16.2666 2.62166 16.2212 2.30966 16.1024 2.04206C15.9745 1.7499 15.7869 1.48467 15.5506 1.26163C15.3143 1.0386 15.0339 0.862153 14.7256 0.742459ZM12.4784 16.1601C14.5879 16.1601 16.297 14.5485 16.297 12.5601C16.297 10.5717 14.5867 8.96006 12.4784 8.96006C10.3702 8.96006 8.65993 10.5717 8.65993 12.5601C8.65993 14.5485 10.3702 16.1601 12.4784 16.1601Z" fill="url(#paint0_linear_1_994)"/>
<defs>
<linearGradient id="paint0_linear_1_994" x1="12.4781" y1="36.5601" x2="36.4781" y2="12.5601" gradientUnits="userSpaceOnUse">
<stop stop-color="#28C4FF"/>
<stop offset="1" stop-color="#0097D1"/>
</linearGradient>
</defs>
</svg>
